<svg xmlns="http://www.w3.org/2000/svg" viewBox="0 0 215 256" enable-background="new 0 0 215 256"><style type="text/css">.st0{fill:none;stroke:#87714F;stroke-miterlimit:10;} .st1{fill:#87714F;}</style><path class="st0" d="M207 238.6v-221.9c-7.6 0-13.7-6.2-13.7-13.7v-.2h-171.8v.2c0 7.5-6 13.6-13.5 13.7v221.9c7.5.1 13.5 6.2 13.5 13.7h171.7c0-7.6 6.2-13.7 13.8-13.7z"/><path class="st1" d="M13.4 6.2c1.8 1.8 1.5 2.3 1 2.9s-1.1.8-2.9-1l-3.5-5.4s3.6 1.8 5.4 3.5z"/><circle class="st1" cx="10.9" cy="10" r="1.2"/><circle class="st1" cx="15.3" cy="5.6" r="1.2"/><path class="st1" d="M201.6 6.2c-1.8 1.8-1.5 2.3-1 2.9s1.1.8 2.9-1l3.5-5.4s-3.6 1.8-5.4 3.5z"/><circle class="st1" cx="204.1" cy="10" r="1.2"/><circle class="st1" cx="199.7" cy="5.6" r="1.2"/><path class="st1" d="M201.6 248.8c-1.8-1.8-1.5-2.3-1-2.9s1.1-.8 2.9 1c1.8 1.8 3.5 5.4 3.5 5.4s-3.6-1.8-5.4-3.5z"/><circle class="st1" cx="204.1" cy="245" r="1.2"/><circle class="st1" cx="199.7" cy="249.4" r="1.2"/><path class="st1" d="M13.4 248.8c1.8-1.8 1.5-2.3 1-2.9s-1.1-.8-2.9 1c-1.8 1.8-3.5 5.4-3.5 5.4s3.6-1.8 5.4-3.5z"/><circle class="st1" cx="10.9" cy="245" r="1.2"/><circle class="st1" cx="15.3" cy="249.4" r="1.2"/></svg>