<svg xmlns="http://www.w3.org/2000/svg" viewBox="0 0 232.8 256" enable-background="new 0 0 232.8 256"><style type="text/css">.st0{fill:#87714F;}</style><path class="st0" d="M217.6 176.1c-1.8 0-3.3.6-4.7 1.5l-29.7-49.9 29.7-49.9c1.4.8 3 1.5 4.7 1.5 5.2 0 9.4-4.2 9.4-9.4s-4.2-9.4-9.4-9.4-9.4 4.2-9.4 9.4v.1l-57.9.7-28.4-50.6c2.9-1.6 4.9-4.6 4.9-8.1 0-5.2-4.2-9.4-9.4-9.4s-9.4 4.2-9.4 9.4c0 3.5 2 6.5 4.9 8.1l-28.5 50.4-57.9-.7v-.1c0-5.2-4.2-9.4-9.4-9.4s-9.4 4.2-9.4 9.4 4.2 9.4 9.4 9.4c1.8 0 3.3-.6 4.7-1.5l29.7 49.9-29.7 49.9c-1.4-.8-3-1.5-4.7-1.5-5.2 0-9.4 4.2-9.4 9.4s4.2 9.4 9.4 9.4 9.4-4.2 9.4-9.4v-.1l57.9-.7 28.4 50.6c-2.9 1.6-4.9 4.6-4.9 8.1 0 5.2 4.2 9.4 9.4 9.4s9.4-4.2 9.4-9.4c0-3.5-2-6.5-4.9-8.1l28.4-50.6 57.9.7v.1c0 5.2 4.2 9.4 9.4 9.4s9.4-4.2 9.4-9.4c.2-5-4.1-9.2-9.3-9.2z" id="Your_Icon"/></svg>