<svg xmlns="http://www.w3.org/2000/svg" viewBox="0 0 256 256" enable-background="new 0 0 256 256"><style type="text/css">.st0{fill:#BC9D6D;}</style><path class="st0" d="M41.7 252.1c3 .3 5.7-1.8 6.2-4.7-.3 3.2 2.1 6 5.3 6.3 3.2.3 6.1-2.1 6.4-5.3.3-3.4 1.1-12.2 1.5-15.3h.2c20.8 1.7 44.4-13.8 49-46.8 2-14.3-1.6-28.5-10.3-40-5.9-7.8-13.6-13.7-22.4-17.3.6-1.3 1.1-2.7 1.3-4.2.5-3.8-.4-7.5-2.7-10.6-2.3-3-5.6-5-9.4-5.5-7-1-13.7 3.4-15.7 10.2-.2.6-.3 1.3-.4 1.9-.2 1.5-.1 2.9.1 4.4-1.5.2-3.1.4-4.6.7l-3.7-10.1c3.7-2.6 6.6-6.5 7.9-11.1.6-2.3.9-4.6.7-6.9l-1.7-25.8c-.2-2.4-.7-4.7-1.7-6.9l13.8-11.4c.3.2.6.4 1 .5 4.9 2.4 10.4 2.8 15.6 1l24.5-8.3c6.3-2.2 11.2-7.3 13.1-13.8v-.1l12.2-.2c2 5 5.9 9.1 11.2 11.3l23.9 9.9c5 2 10.4 2.1 15.4.1l5.4 6.8c-1.1 1.7-2 3.6-2.6 5.6-.8 2.7-1 5.5-.6 8.4l3.5 25.7c1.1 7.7 6.3 13.8 13 16.3l-.3 8.5c-18 .6-35.3 10.1-45 26.8-3.1 5.3-5.3 10.5-6.7 15.6-6.4 22.5 2.1 42.1 16.4 51.5.1 0 .1.1.2.2-1.7 2.8-6.4 10.2-8.2 13.2-1.7 2.7-.9 6.3 1.8 8.1 2.7 1.7 6.3.9 8.1-1.8-.2.4-.4.7-.5 1.1-.7 2.4.3 5.1 2.5 6.5 2.7 1.7 6.3.9 8.1-1.8.7-1.1 6.5-10.2 8.5-13.5l.3.1c18.7 9.4 46.3 3.9 63-24.9 12.6-21.7 8.3-48.6-8.8-65.4 1.1-1 2.1-2.1 2.8-3.4.6-1 1.1-2.1 1.4-3.2 1.8-6.3-.9-12.9-6.6-16.2-6.8-3.9-15.5-1.6-19.5 5.2-.6 1-1.1 2.1-1.4 3.2l-.2.9c-1.5-.4-3-.8-4.5-1l.3-8.6c7.3-1.6 13.1-7.1 15.2-14.3.8-2.7 1-5.5.6-8.4l-3.5-25.7c-1.5-11.2-11.9-19-23-17.5-1.9.3-3.6.8-5.3 1.5l-5.2-6.6c.8-1.2 1.6-2.5 2.1-3.9 4.3-10.6-.8-22.4-11.1-26.7l-23.9-9.9c-5-2.1-10.6-2.1-15.7 0-5 2.1-9 6-11 11.1-.3.7-.6 1.5-.8 2.2-.1.5-.2 1-.4 1.5l-11.3.2-.1-.4c-1.8-5.2-5.4-9.3-10.3-11.8-4.9-2.4-10.4-2.8-15.6-1l-24.5 8.3c-6.3 2.2-11.2 7.3-13.1 13.8-1.1 4-1 8.2.3 12.2.3 1 .7 1.9 1.2 2.8l-13.2 10.8c-3.7-2.4-8-3.6-12.5-3.3-8.6.6-16 6.5-18.3 14.8-.6 2.3-.9 4.6-.7 6.9l1.7 25.8c.7 11 10.1 19.4 21 19.1l3.6 9.9c-14.2 6.4-25.5 18.8-30 34.5-.7 2.4-1.2 4.8-1.5 7.3-4.7 33 13.7 54.4 34.2 58.5.1 0 .2 0 .3.1-.5 3.8-1.4 14.6-1.6 15.9-.3 3.3 2 6.1 5.3 6.4zm193.5-51.7c-9.9 17.1-29.4 29.5-47.6 20.3-5.6-2.8-12.1-1.3-15.1 3.6 2.7-4.9.8-11.4-4.4-14.9-17-11.2-15.9-34.4-6-51.5 11.7-20.1 37.6-27 57.7-15.3 20.3 11.7 27.1 37.6 15.4 57.8zm-10.3-71.4c.7-1.2 2.3-1.6 3.5-.9 1 .6 1.5 1.8 1.2 2.9l-.2.6c-.7 1.2-2.3 1.6-3.5.9-1.3-.7-1.7-2.3-1-3.5zm-15.2-58.1l3.5 25.7c.2 1.2.1 2.4-.3 3.6-.6 2-1.8 3.7-3.5 4.8l.3-8.3c.1-3.2-2.4-5.9-5.6-6-2.7-.1-5.1 1.7-5.8 4.2-.1.5-.2.9-.2 1.4l-.2 7c-1-1.2-1.7-2.7-1.9-4.3l-3.5-25.7c-.1-.6-.1-1.2-.1-1.8l4 5.1c2 2.5 5.7 3 8.2 1 2.5-2 3-5.7 1-8.2l-4.7-5.9c4.3-.2 8.2 2.9 8.8 7.4zm-66.1-53.8c2.2-.9 4.5-.9 6.7 0l23.9 9.9c3.8 1.6 5.9 5.5 5.3 9.4l-2.8-3.6c-2-2.5-5.7-3-8.2-1-1 .8-1.7 1.8-2 3-.5 1.7-.2 3.7 1 5.2l2.9 3.7c-1-.1-1.9-.2-2.9-.6l-23.9-9.9c-.5-.2-1-.5-1.5-.8l4.4-.1c3.2-.1 5.8-2.7 5.7-6-.1-3.2-2.7-5.8-6-5.7l-6.9.1c1.1-1.5 2.5-2.8 4.3-3.6zm-74.8 10.5l24.5-8.3c2.2-.8 4.6-.6 6.7.4 1 .5 1.8 1.1 2.5 1.9l-4.6.1c-2.6.1-4.8 1.8-5.5 4.2-.2.5-.2 1.1-.2 1.7.1 3.2 2.7 5.8 6 5.7l4.5-.1c-1 1.1-2.3 2-3.7 2.5l-24.5 8.3c-.6.2-1.1.3-1.7.4l4.2-3.4c2.5-2.1 2.9-5.7.8-8.2-2.1-2.5-5.7-2.8-8.2-.8l-6.5 5.3c-.7-4.1 1.8-8.4 5.7-9.7zm-46.7 72.1l-1.7-25.8c-.3-4.8 3.5-9 8.2-9.3h1.5l-3.9 3.2c-.9.8-1.6 1.8-1.9 2.9-.5 1.8-.2 3.8 1.1 5.3 2.1 2.5 5.7 2.8 8.2.8l4.4-3.6 1.7 25.3c.1 1 0 2-.3 3-.2.8-.6 1.6-1.1 2.3l-2.1-5.7c-1.1-3-4.5-4.6-7.5-3.5-1.8.7-3.1 2.2-3.6 3.9-.3 1.1-.3 2.4.1 3.6l1.7 4.7c-2.7-1.3-4.6-4-4.8-7.1zm40.7 24.7c-.2-.3-.6-1-.5-1.9.2-1.4 1.5-2.4 2.9-2.2.9.1 1.4.7 1.7 1 .2.3.6 1 .5 1.9 0 .1 0 .2-.1.4-.3 1.2-1.5 2-2.8 1.8-1-.2-1.5-.7-1.7-1zm-47.7 48.5c3.2-23.1 24.7-39.2 47.7-35.9 11.2 1.6 21.1 7.4 27.9 16.4 6.8 9 9.7 20.1 8.1 31.3-3.6 25.8-21.1 38-36.5 36.8-6.2-.5-11.7 3.4-12.6 8.9.6-5.6-3.5-10.9-9.7-12.1-20-4-27.7-25.9-24.9-45.4z" id="Your_Icon_2_"/></svg>